<svg xmlns="http://www.w3.org/2000/svg" viewBox="0 0 1900 1000"><rect width="1900" height="1000" fill="#FFFFFF"/><rect y="0.00" width="1900" height="76.92" fill="#B22234"/><rect y="153.85" width="1900" height="76.92" fill="#B22234"/><rect y="307.69" width="1900" height="76.92" fill="#B22234"/><rect y="461.54" width="1900" height="76.92" fill="#B22234"/><rect y="615.38" width="1900" height="76.92" fill="#B22234"/><rect y="769.23" width="1900" height="76.92" fill="#B22234"/><rect y="923.08" width="1900" height="76.92" fill="#B22234"/><rect width="760" height="538.46" fill="#3C3B6E"/><path fill="#FFFFFF" d="M63.0,23.2 L69.9,44.5 L92.3,44.5 L74.2,57.6 L81.1,78.9 L63.0,65.8 L44.9,78.9 L51.8,57.6 L33.7,44.5 L56.1,44.5Z M189.0,23.2 L195.9,44.5 L218.3,44.5 L200.2,57.6 L207.1,78.9 L189.0,65.8 L170.9,78.9 L177.8,57.6 L159.7,44.5 L182.1,44.5Z M315.0,23.2 L321.9,44.5 L344.3,44.5 L326.2,57.6 L333.1,78.9 L315.0,65.8 L296.9,78.9 L303.8,57.6 L285.7,44.5 L308.1,44.5Z M441.0,23.2 L447.9,44.5 L470.3,44.5 L452.2,57.6 L459.1,78.9 L441.0,65.8 L422.9,78.9 L429.8,57.6 L411.7,44.5 L434.1,44.5Z M567.0,23.2 L573.9,44.5 L596.3,44.5 L578.2,57.6 L585.1,78.9 L567.0,65.8 L548.9,78.9 L555.8,57.6 L537.7,44.5 L560.1,44.5Z M693.0,23.2 L699.9,44.5 L722.3,44.5 L704.2,57.6 L711.1,78.9 L693.0,65.8 L674.9,78.9 L681.8,57.6 L663.7,44.5 L686.1,44.5Z M126.0,77.2 L132.9,98.5 L155.3,98.5 L137.2,111.6 L144.1,132.9 L126.0,119.8 L107.9,132.9 L114.8,111.6 L96.7,98.5 L119.1,98.5Z M252.0,77.2 L258.9,98.5 L281.3,98.5 L263.2,111.6 L270.1,132.9 L252.0,119.8 L233.9,132.9 L240.8,111.6 L222.7,98.5 L245.1,98.5Z M378.0,77.2 L384.9,98.5 L407.3,98.5 L389.2,111.6 L396.1,132.9 L378.0,119.8 L359.9,132.9 L366.8,111.6 L348.7,98.5 L371.1,98.5Z M504.0,77.2 L510.9,98.5 L533.3,98.5 L515.2,111.6 L522.1,132.9 L504.0,119.8 L485.9,132.9 L492.8,111.6 L474.7,98.5 L497.1,98.5Z M630.0,77.2 L636.9,98.5 L659.3,98.5 L641.2,111.6 L648.1,132.9 L630.0,119.8 L611.9,132.9 L618.8,111.6 L600.7,98.5 L623.1,98.5Z M63.0,131.2 L69.9,152.5 L92.3,152.5 L74.2,165.6 L81.1,186.9 L63.0,173.8 L44.9,186.9 L51.8,165.6 L33.7,152.5 L56.1,152.5Z M189.0,131.2 L195.9,152.5 L218.3,152.5 L200.2,165.6 L207.1,186.9 L189.0,173.8 L170.9,186.9 L177.8,165.6 L159.7,152.5 L182.1,152.5Z M315.0,131.2 L321.9,152.5 L344.3,152.5 L326.2,165.6 L333.1,186.9 L315.0,173.8 L296.9,186.9 L303.8,165.6 L285.7,152.5 L308.1,152.5Z M441.0,131.2 L447.9,152.5 L470.3,152.5 L452.2,165.6 L459.1,186.9 L441.0,173.8 L422.9,186.9 L429.8,165.6 L411.7,152.5 L434.1,152.5Z M567.0,131.2 L573.9,152.5 L596.3,152.5 L578.2,165.6 L585.1,186.9 L567.0,173.8 L548.9,186.9 L555.8,165.6 L537.7,152.5 L560.1,152.5Z M693.0,131.2 L699.9,152.5 L722.3,152.5 L704.2,165.6 L711.1,186.9 L693.0,173.8 L674.9,186.9 L681.8,165.6 L663.7,152.5 L686.1,152.5Z M126.0,185.2 L132.9,206.5 L155.3,206.5 L137.2,219.6 L144.1,240.9 L126.0,227.8 L107.9,240.9 L114.8,219.6 L96.7,206.5 L119.1,206.5Z M252.0,185.2 L258.9,206.5 L281.3,206.5 L263.2,219.6 L270.1,240.9 L252.0,227.8 L233.9,240.9 L240.8,219.6 L222.7,206.5 L245.1,206.5Z M378.0,185.2 L384.9,206.5 L407.3,206.5 L389.2,219.6 L396.1,240.9 L378.0,227.8 L359.9,240.9 L366.8,219.6 L348.7,206.5 L371.1,206.5Z M504.0,185.2 L510.9,206.5 L533.3,206.5 L515.2,219.6 L522.1,240.9 L504.0,227.8 L485.9,240.9 L492.8,219.6 L474.7,206.5 L497.1,206.5Z M630.0,185.2 L636.9,206.5 L659.3,206.5 L641.2,219.6 L648.1,240.9 L630.0,227.8 L611.9,240.9 L618.8,219.6 L600.7,206.5 L623.1,206.5Z M63.0,239.2 L69.9,260.5 L92.3,260.5 L74.2,273.6 L81.1,294.9 L63.0,281.8 L44.9,294.9 L51.8,273.6 L33.7,260.5 L56.1,260.5Z M189.0,239.2 L195.9,260.5 L218.3,260.5 L200.2,273.6 L207.1,294.9 L189.0,281.8 L170.9,294.9 L177.8,273.6 L159.7,260.5 L182.1,260.5Z M315.0,239.2 L321.9,260.5 L344.3,260.5 L326.2,273.6 L333.1,294.9 L315.0,281.8 L296.9,294.9 L303.8,273.6 L285.7,260.5 L308.1,260.5Z M441.0,239.2 L447.9,260.5 L470.3,260.5 L452.2,273.6 L459.1,294.9 L441.0,281.8 L422.9,294.9 L429.8,273.6 L411.7,260.5 L434.1,260.5Z M567.0,239.2 L573.9,260.5 L596.3,260.5 L578.2,273.6 L585.1,294.9 L567.0,281.8 L548.9,294.9 L555.8,273.6 L537.7,260.5 L560.1,260.5Z M693.0,239.2 L699.9,260.5 L722.3,260.5 L704.2,273.6 L711.1,294.9 L693.0,281.8 L674.9,294.9 L681.8,273.6 L663.7,260.5 L686.1,260.5Z M126.0,293.2 L132.9,314.5 L155.3,314.5 L137.2,327.6 L144.1,348.9 L126.0,335.8 L107.9,348.9 L114.8,327.6 L96.7,314.5 L119.1,314.5Z M252.0,293.2 L258.9,314.5 L281.3,314.5 L263.2,327.6 L270.1,348.9 L252.0,335.8 L233.9,348.9 L240.8,327.6 L222.7,314.5 L245.1,314.5Z M378.0,293.2 L384.9,314.5 L407.3,314.5 L389.2,327.6 L396.1,348.9 L378.0,335.8 L359.9,348.9 L366.8,327.6 L348.7,314.5 L371.1,314.5Z M504.0,293.2 L510.9,314.5 L533.3,314.5 L515.2,327.6 L522.1,348.9 L504.0,335.8 L485.9,348.9 L492.8,327.6 L474.7,314.5 L497.1,314.5Z M630.0,293.2 L636.9,314.5 L659.3,314.5 L641.2,327.6 L648.1,348.9 L630.0,335.8 L611.9,348.9 L618.8,327.6 L600.7,314.5 L623.1,314.5Z M63.0,347.2 L69.9,368.5 L92.3,368.5 L74.2,381.6 L81.1,402.9 L63.0,389.8 L44.9,402.9 L51.8,381.6 L33.7,368.5 L56.1,368.5Z M189.0,347.2 L195.9,368.5 L218.3,368.5 L200.2,381.6 L207.1,402.9 L189.0,389.8 L170.9,402.9 L177.8,381.6 L159.7,368.5 L182.1,368.5Z M315.0,347.2 L321.9,368.5 L344.3,368.5 L326.2,381.6 L333.1,402.9 L315.0,389.8 L296.9,402.9 L303.8,381.6 L285.7,368.5 L308.1,368.5Z M441.0,347.2 L447.9,368.5 L470.3,368.5 L452.2,381.6 L459.1,402.9 L441.0,389.8 L422.9,402.9 L429.8,381.6 L411.7,368.5 L434.1,368.5Z M567.0,347.2 L573.9,368.5 L596.3,368.5 L578.2,381.6 L585.1,402.9 L567.0,389.8 L548.9,402.9 L555.8,381.6 L537.7,368.5 L560.1,368.5Z M693.0,347.2 L699.9,368.5 L722.3,368.5 L704.2,381.6 L711.1,402.9 L693.0,389.8 L674.9,402.9 L681.8,381.6 L663.7,368.5 L686.1,368.5Z M126.0,401.2 L132.9,422.5 L155.3,422.5 L137.2,435.6 L144.1,456.9 L126.0,443.8 L107.9,456.9 L114.8,435.6 L96.7,422.5 L119.1,422.5Z M252.0,401.2 L258.9,422.5 L281.3,422.5 L263.2,435.6 L270.1,456.9 L252.0,443.8 L233.9,456.9 L240.8,435.6 L222.7,422.5 L245.1,422.5Z M378.0,401.2 L384.9,422.5 L407.3,422.5 L389.2,435.6 L396.1,456.9 L378.0,443.8 L359.9,456.9 L366.8,435.6 L348.7,422.5 L371.1,422.5Z M504.0,401.2 L510.9,422.5 L533.3,422.5 L515.2,435.6 L522.1,456.9 L504.0,443.8 L485.9,456.9 L492.8,435.6 L474.7,422.5 L497.1,422.5Z M630.0,401.2 L636.9,422.5 L659.3,422.5 L641.2,435.6 L648.1,456.9 L630.0,443.8 L611.9,456.9 L618.8,435.6 L600.7,422.5 L623.1,422.5Z M63.0,455.2 L69.9,476.5 L92.3,476.5 L74.2,489.6 L81.1,510.9 L63.0,497.8 L44.9,510.9 L51.8,489.6 L33.7,476.5 L56.1,476.5Z M189.0,455.2 L195.9,476.5 L218.3,476.5 L200.2,489.6 L207.1,510.9 L189.0,497.8 L170.9,510.9 L177.8,489.6 L159.7,476.5 L182.1,476.5Z M315.0,455.2 L321.9,476.5 L344.3,476.5 L326.2,489.6 L333.1,510.9 L315.0,497.8 L296.9,510.9 L303.8,489.6 L285.7,476.5 L308.1,476.5Z M441.0,455.2 L447.9,476.5 L470.3,476.5 L452.2,489.6 L459.1,510.9 L441.0,497.8 L422.9,510.9 L429.8,489.6 L411.7,476.5 L434.1,476.5Z M567.0,455.2 L573.9,476.5 L596.3,476.5 L578.2,489.6 L585.1,510.9 L567.0,497.8 L548.9,510.9 L555.8,489.6 L537.7,476.5 L560.1,476.5Z M693.0,455.2 L699.9,476.5 L722.3,476.5 L704.2,489.6 L711.1,510.9 L693.0,497.8 L674.9,510.9 L681.8,489.6 L663.7,476.5 L686.1,476.5Z"/></svg>